<svg width="41" height="41" viewBox="0 0 41 41" fill="none" xmlns="http://www.w3.org/2000/svg">
<path d="M7.62384 4.38645C7.62384 4.38645 14.0538 0.571581 20.7897 0.705406C27.5257 0.83923 30.7859 2.13383 34.9505 5.25543C38.6284 8.01227 39.5156 9.80491 40.4619 13.4181C42.0446 19.4612 39.8245 24.1045 34.9505 28.6078C30.6357 32.5943 28.9034 32.0881 21.8612 32.6888C18.8621 32.9447 13.2118 32.6888 13.2118 32.6888L19.3354 23.5888C19.3354 23.5888 31.8121 20.043 30.4344 21.8491C29.0568 23.6551 24.5403 9.93731 25.0761 9.80491C25.612 9.67251 10.2264 14.288 10.8387 12.4814C11.4511 10.6748 14.0538 21.8491 14.0538 21.8491C14.0538 21.8491 3.18433 46.6065 2.26581 39.38C1.34729 32.1536 0.428722 20.5108 1.34727 14.4218C2.26581 8.33281 7.62384 4.38645 7.62384 4.38645Z" fill="#9F9FA9"/>
</svg>
