<svg width="40" height="40" viewBox="0 0 40 40" fill="none" xmlns="http://www.w3.org/2000/svg">
<path d="M6.65704 3.68448C6.65704 3.68448 13.087 -0.130384 19.8229 0.00344037C26.5589 0.137265 29.8191 1.43186 33.9837 4.55346C37.6616 7.31031 38.5488 9.10295 39.4951 12.7162C41.0778 18.7592 38.8577 23.4025 33.9837 27.9058C29.669 31.8924 27.9366 31.3861 20.8945 31.9869C17.8953 32.2427 12.245 31.9869 12.245 31.9869L18.3686 22.8868C18.3686 22.8868 30.8453 19.3411 29.4676 21.1471C28.09 22.9531 23.5735 9.23535 24.1093 9.10295C24.6452 8.97054 9.25957 13.5861 9.87193 11.7794C10.4843 9.9728 13.087 21.1471 13.087 21.1471C13.087 21.1471 2.21753 45.9046 1.29901 38.6781C0.380493 31.4516 -0.538075 19.8089 0.380469 13.7199C1.29901 7.63084 6.65704 3.68448 6.65704 3.68448Z" fill="#7C5CD6"/>
</svg>
